# Blender v2.72 (sub 0) OBJ File: 'test_level.blend'
# www.blender.org
o Cube_Cube.001
v -1.402654 -1.872741 10.713952
v -1.402654 -1.872748 14.999534
v 3.235407 -1.872748 14.999534
v 3.235407 -1.872741 10.713952
v -1.402654 -1.872742 6.428371
v 3.235407 -1.872742 6.428371
v 3.235407 -1.872742 2.142790
v -1.402654 -1.872742 2.142790
v -1.402654 -1.872742 -2.142791
v 3.235407 -1.872742 -2.142791
v -1.402654 -1.872742 -6.428372
v 3.235407 -1.872742 -6.428372
v 3.235407 -1.872742 -10.713952
v -1.402654 -1.872742 -10.713952
v -1.402654 -1.872742 -14.999534
v 3.235407 -1.872742 -14.999534
v 11.091901 0.598228 -2.142791
v 7.233686 0.598228 -2.142791
v 7.233686 -1.872742 2.142790
v 11.091901 -1.872742 2.142790
v 11.091901 13.389005 14.999535
v 7.233686 13.389005 14.999535
v 7.233686 17.803696 14.999535
v 11.091901 17.803696 14.999535
v 7.233686 -1.872742 6.428371
v 11.091901 -1.872742 6.428371
v 7.233686 -1.872748 14.999534
v 7.233686 -1.872741 10.713952
v 7.233686 0.598228 -6.428372
v 7.233686 0.598228 -10.713952
v 11.091901 -1.872741 10.713952
v 15.729963 0.598228 -6.428372
v 15.729963 0.598228 -2.142791
v 20.368025 -1.872742 -2.142791
v 20.368025 -1.872742 -6.428372
v 20.368025 -1.872742 -10.713952
v 15.729963 0.598228 -10.713952
v -1.402654 13.389005 14.999535
v -6.040713 13.389005 14.999535
v -6.040713 17.803696 14.999535
v -1.402654 17.803696 14.999535
v 20.368025 -1.872742 -14.999534
v 15.729963 -1.872742 -14.999534
v 15.729963 -1.872748 14.999534
v 20.368025 -1.872748 14.999534
v 20.368025 -1.872741 10.713952
v 15.729963 -1.872741 10.713952
v 15.729963 -1.872742 6.428371
v 20.368025 -1.872742 6.428371
v 15.729963 -1.872742 2.142790
v 20.368025 -1.872742 2.142790
v 7.233686 -1.872742 -14.999534
v 11.091901 0.598228 -6.428372
v 11.091901 -1.872742 -14.999534
v 11.091901 0.598228 -10.713952
v 11.091901 -1.872748 14.999534
v -16.504074 -2.125863 2.530503
v -16.504074 -2.125863 0.348044
v -19.009897 -2.125863 0.348044
v -19.009897 -2.125863 2.530503
v -16.504074 -2.125863 8.253559
v -16.504074 -2.125863 6.071101
v -19.009897 -2.125863 6.071101
v -19.009897 -2.125863 8.253559
v -6.040713 -1.872742 -2.142791
v -9.746256 -2.125863 -1.010082
v -9.746256 -2.125863 1.282763
v -6.040713 -1.872742 2.142790
v -9.746256 -2.125863 9.611688
v -6.040713 -1.872741 10.713952
v -6.040713 -1.872742 6.428371
v -9.746256 -2.129320 7.427763
v -11.104385 -2.125863 1.282759
v -11.104385 -2.125863 0.348044
v -13.286842 -2.125863 0.348044
v -13.286842 -2.125863 2.530503
v -11.104385 -2.125863 8.253559
v -11.104385 -2.129320 7.427767
v -13.286842 -2.125863 6.071101
v -13.286842 -2.125863 8.253559
v -6.040713 -1.872748 14.999534
v 15.729963 13.389005 14.999535
v 15.729963 17.803696 14.999535
v -6.040713 -1.872742 -6.428372
v -6.040713 -1.872742 -10.713952
v -6.040713 -1.872742 -14.999534
v 3.235407 17.803696 14.999535
v 20.368025 17.803696 14.999535
v 3.235407 13.389005 14.999535
v 20.368025 13.389005 14.999535
v 7.233686 3.214502 14.999534
v 11.091901 3.214502 14.999534
v 7.233686 8.301753 14.999534
v 11.091901 8.301753 14.999534
v -6.040713 3.214502 14.999534
v -1.402654 3.214502 14.999534
v -6.040713 8.301753 14.999534
v -1.402654 8.301753 14.999534
v 15.729963 3.214502 14.999534
v 15.729963 8.301753 14.999534
v 3.235407 3.214502 14.999534
v 3.235407 8.301753 14.999534
v 20.368025 3.214502 14.999534
v 20.368025 8.301753 14.999534
v -9.746256 1.157921 7.427763
v -9.746256 1.161377 9.611688
v -19.009897 1.313897 6.071101
v -19.009897 1.313897 8.253561
v -20.368025 1.161378 2.530507
v -20.368025 1.161378 -1.010082
v -20.368025 -2.125863 -1.010082
v -20.368025 -2.125863 2.530507
v -13.286842 1.161378 -1.010082
v -9.746256 1.161378 -1.010082
v -13.286842 -2.125863 -1.010082
v -16.504074 1.161377 9.611688
v -20.368025 1.161376 9.611688
v -20.368025 -2.125863 9.611688
v -16.504074 -2.125863 9.611688
v -11.104385 11.015342 6.071102
v -11.104385 11.015342 8.253562
v -9.746256 10.843462 9.611688
v -9.746256 10.843462 6.071098
v -13.286842 11.015342 0.348045
v -11.104385 11.015342 0.348045
v -9.746256 10.843462 -1.010081
v -13.286842 10.843462 -1.010081
v -16.504074 11.015342 8.253562
v -19.009897 11.015342 8.253562
v -20.368025 10.843462 9.611688
v -16.504074 10.843462 9.611687
v -19.009897 11.015342 2.530504
v -19.009897 11.015342 0.348045
v -20.368025 10.843462 -1.010081
v -20.368025 10.843462 2.530508
v -13.286842 1.313897 8.253561
v -11.104385 1.313897 8.253561
v -16.504074 1.313898 0.348044
v -19.009897 1.313898 0.348044
v -11.104385 1.313898 1.282760
v -11.104385 1.313898 0.348044
v -9.746256 1.161378 1.282763
v -19.009897 7.884499 6.071102
v -19.009897 7.884499 8.253561
v -19.009897 4.753657 8.253561
v -19.009897 4.753657 6.071102
v -19.009897 1.313897 2.530503
v -20.368025 1.161378 6.071099
v -20.368025 -2.125863 6.071097
v -11.104385 11.015342 2.530504
v -9.746256 10.843462 2.530508
v -19.009897 11.015342 6.071102
v -20.368025 10.843462 6.071102
v -11.104385 1.310440 7.427767
v -11.104385 4.753657 6.071102
v -9.746256 4.448615 6.071097
v -9.746256 7.646038 6.071098
v -9.746256 7.646038 9.611688
v -9.746256 4.448615 9.611688
v -20.368025 7.646039 2.530507
v -20.368025 7.646039 -1.010081
v -20.368025 4.448616 -1.010081
v -20.368025 4.448616 2.530507
v -13.286842 7.646039 -1.010081
v -9.746256 7.646039 -1.010081
v -9.746256 4.448616 -1.010081
v -13.286842 4.448616 -1.010081
v -16.504074 7.646038 9.611687
v -20.368025 7.646038 9.611688
v -20.368025 4.448615 9.611688
v -16.504074 4.448615 9.611688
v -9.746256 7.646039 2.530507
v -9.746256 4.448616 2.530507
v -20.368025 7.646038 6.071101
v -20.368025 4.448615 6.071100
v -13.286842 7.884499 8.253561
v -11.104385 7.884499 8.253561
v -11.104385 4.753657 8.253561
v -13.286842 4.753657 8.253561
v -16.504074 7.884500 0.348047
v -19.009897 7.884501 0.348045
v -19.009897 4.753659 0.348045
v -16.504074 4.753659 0.348045
v -11.104385 7.884500 2.530504
v -11.104385 7.884501 0.348045
v -11.104385 4.753659 0.348045
v -11.104385 4.753658 2.530504
v -19.009897 7.884500 2.530504
v -19.009897 4.753658 2.530504
v -11.104385 7.884499 6.071102
v -16.504074 1.161378 -1.010082
v -16.504074 -2.125863 -1.010082
v -13.286842 1.161377 9.611688
v -13.286842 -2.125863 9.611688
v -16.504074 11.015342 0.348049
v -16.504074 10.843462 -1.010081
v -13.286842 11.015342 8.253562
v -13.286842 10.843462 9.611688
v -16.504074 1.313897 8.253561
v -13.286842 1.313898 0.348044
v -16.504074 7.646039 -1.010081
v -16.504074 4.448616 -1.010081
v -13.286842 7.646038 9.611688
v -13.286842 4.448615 9.611688
v -16.504074 7.884499 8.253561
v -16.504074 4.753657 8.253561
v -13.286842 7.884500 0.348045
v -13.286842 4.753659 0.348045
vt 0.598417 0.304823
vt 0.501623 0.304823
vt 0.501623 0.198868
vt 0.598417 0.198868
vt 0.301482 0.304823
vt 0.193998 0.304823
vt 0.193998 0.198868
vt 0.301482 0.198868
vt 0.705900 0.304823
vt 0.705900 0.198868
vt 0.399122 0.304823
vt 0.399122 0.198868
vt 0.803541 0.304823
vt 0.803541 0.198868
vt 0.598417 0.605308
vt 0.501623 0.605308
vt 0.501623 0.500225
vt 0.598417 0.500225
vt 0.501623 0.395142
vt 0.598417 0.395142
vt 0.301482 0.605308
vt 0.193998 0.605308
vt 0.193998 0.500225
vt 0.301482 0.500225
vt 0.193998 0.395142
vt 0.301482 0.395142
vt 0.705900 0.605308
vt 0.705900 0.500225
vt 0.705900 0.395142
vt 0.399123 0.605308
vt 0.399122 0.500225
vt 0.399122 0.395142
vt 0.803541 0.605308
vt 0.803541 0.500225
vt 0.803541 0.395142
vt 0.063938 0.333077
vt 0.000000 0.333077
vt 0.000000 0.262118
vt 0.063938 0.262118
vt 0.127876 0.333077
vt 0.127876 0.262118
vt 0.191814 0.262118
vt 0.191814 0.333077
vt 0.255751 0.333077
vt 0.255751 0.262118
vt 0.319689 0.333077
vt 0.319689 0.262118
vt 0.383627 0.262118
vt 0.383627 0.333077
vt 0.447565 0.333077
vt 0.447565 0.262118
vt 0.255751 0.141918
vt 0.255751 0.200984
vt 0.191814 0.200984
vt 0.191814 0.141919
vt 0.127876 0.200984
vt 0.127876 0.141919
vt 0.000000 0.200984
vt 0.063938 0.200984
vt 0.319689 0.200984
vt 0.383627 0.200984
vt 0.063938 0.141919
vt 0.319689 0.070959
vt 0.255751 0.070959
vt 0.255751 0.000000
vt 0.319689 0.000000
vt 0.383627 0.000000
vt 0.383627 0.070959
vt 0.447565 0.000000
vt 0.447565 0.070959
vt 0.000000 0.070959
vt 0.000000 0.000000
vt 0.063938 0.000000
vt 0.063938 0.070959
vt 0.127876 0.070959
vt 0.127876 0.000000
vt 0.191814 0.070959
vt 0.191814 0.000000
vt 0.447565 0.200984
vt 0.319689 0.141919
vt 0.447565 0.141919
vt 0.383627 0.141919
vt 0.000000 0.141919
vt 0.186029 0.564119
vt 0.218590 0.564119
vt 0.218590 0.602456
vt 0.186029 0.602456
vt 0.100645 0.564119
vt 0.133206 0.564119
vt 0.133206 0.602456
vt 0.100645 0.602456
vt 0.255751 0.404036
vt 0.238852 0.460728
vt 0.186029 0.460728
vt 0.191814 0.404036
vt 0.080383 0.460728
vt 0.063938 0.404036
vt 0.127876 0.404036
vt 0.133206 0.460728
vt 0.186029 0.481507
vt 0.218590 0.481507
vt 0.218590 0.514897
vt 0.186029 0.514897
vt 0.100645 0.481507
vt 0.133206 0.481507
vt 0.133206 0.514897
vt 0.100645 0.514897
vt 0.000000 0.404036
vt 0.319689 0.404036
vt 0.383627 0.404036
vt 0.447565 0.404036
vt 0.211292 0.652749
vt 0.158469 0.652749
vt 0.158469 0.602456
vt 0.211292 0.602456
vt 0.903501 0.545270
vt 0.936062 0.545270
vt 0.936062 0.597896
vt 0.903501 0.597896
vt 0.105646 0.750585
vt 0.158469 0.750585
vt 0.158469 0.800878
vt 0.105646 0.800878
vt 0.859826 0.346552
vt 0.912649 0.346552
vt 0.912649 0.396844
vt 0.859826 0.396844
vt 0.855001 0.148130
vt 0.912649 0.148130
vt 0.912649 0.198422
vt 0.855001 0.198422
vt 0.138203 0.855047
vt 0.138203 0.821657
vt 0.158469 0.855047
vt 0.105643 0.942606
vt 0.138203 0.942606
vt 0.158469 0.963384
vt 0.105646 0.963384
vt 0.057644 0.821657
vt 0.020259 0.821657
vt 0.000000 0.800878
vt 0.057647 0.800878
vt 0.020259 0.909216
vt 0.020259 0.942606
vt 0.000000 0.963384
vt 0.000000 0.909216
vt 0.903501 0.746322
vt 0.936062 0.746322
vt 0.936062 0.798948
vt 0.903501 0.798948
vt 0.898677 0.947374
vt 0.936062 0.947374
vt 0.936062 1.000000
vt 0.898677 1.000000
vt 0.402323 0.750882
vt 0.434884 0.750882
vt 0.434884 0.803508
vt 0.402323 0.803508
vt 0.316939 0.652749
vt 0.264116 0.652749
vt 0.264116 0.602456
vt 0.316939 0.602456
vt 0.903501 0.444744
vt 0.936062 0.444744
vt 0.936062 0.492644
vt 0.903501 0.492644
vt 0.818117 0.545270
vt 0.850678 0.545270
vt 0.850678 0.597896
vt 0.818117 0.597896
vt 0.000000 0.750586
vt 0.052823 0.750585
vt 0.052823 0.800878
vt 0.138203 0.909216
vt 0.158469 0.909216
vt 0.020259 0.855047
vt 0.000000 0.855047
vt 0.316939 0.750882
vt 0.349500 0.750882
vt 0.349500 0.803508
vt 0.316939 0.803508
vt 0.198994 0.855838
vt 0.178732 0.853504
vt 0.178732 0.800878
vt 0.198994 0.805545
vt 0.211292 0.751960
vt 0.158469 0.751960
vt 0.158469 0.703041
vt 0.211292 0.703041
vt 0.105646 0.651374
vt 0.158469 0.651374
vt 0.158469 0.700293
vt 0.105646 0.700293
vt 0.859826 0.247341
vt 0.912649 0.247341
vt 0.912649 0.296259
vt 0.859826 0.296259
vt 0.855001 0.048918
vt 0.912649 0.048918
vt 0.912649 0.097837
vt 0.855001 0.097837
vt 0.316939 0.751960
vt 0.264116 0.751960
vt 0.264116 0.703041
vt 0.316939 0.703041
vt 0.000000 0.651374
vt 0.052823 0.651374
vt 0.052823 0.700293
vt 0.000000 0.700293
vt 0.903501 0.645796
vt 0.936062 0.645796
vt 0.936062 0.693696
vt 0.903501 0.693696
vt 0.898677 0.846848
vt 0.936062 0.846848
vt 0.936062 0.894748
vt 0.898677 0.894748
vt 0.402323 0.650356
vt 0.434884 0.650356
vt 0.434884 0.698256
vt 0.402323 0.698256
vt 0.818117 0.444744
vt 0.850678 0.444744
vt 0.850678 0.492644
vt 0.818117 0.492644
vt 0.316939 0.650356
vt 0.349499 0.650356
vt 0.349499 0.698256
vt 0.316939 0.698256
vt 0.158469 0.855838
vt 0.158469 0.805545
vt 0.198994 0.800878
vt 0.219761 0.800878
vt 0.219761 0.855047
vt 0.198994 0.855047
vt 0.754179 0.346552
vt 0.811827 0.346552
vt 0.811827 0.396844
vt 0.754179 0.396844
vt 0.754179 0.148130
vt 0.807003 0.148130
vt 0.807003 0.198422
vt 0.754179 0.198422
vt 0.057644 0.942606
vt 0.057647 0.963384
vt 0.105643 0.821657
vt 0.818117 0.746322
vt 0.855503 0.746322
vt 0.855503 0.798948
vt 0.818117 0.798948
vt 0.818117 0.947374
vt 0.850678 0.947374
vt 0.850678 1.000000
vt 0.818117 1.000000
vt 0.754179 0.247341
vt 0.811827 0.247341
vt 0.811827 0.296259
vt 0.754179 0.296259
vt 0.754179 0.048919
vt 0.807003 0.048919
vt 0.807003 0.097837
vt 0.754179 0.097837
vt 0.818117 0.645796
vt 0.855502 0.645796
vt 0.855503 0.693696
vt 0.818117 0.693696
vt 0.818117 0.846848
vt 0.850678 0.846848
vt 0.850678 0.894748
vt 0.818117 0.894748
vt 0.198994 0.906130
vt 0.178732 0.906130
vt 0.158469 0.906130
vt 0.211292 0.800878
vt 0.105646 0.602456
vt 0.859826 0.198422
vt 0.855001 0.000000
vt 0.912649 0.000000
vt 0.316939 0.800878
vt 0.264116 0.800878
vt 0.000000 0.602456
vt 0.052823 0.602456
vt 0.811827 0.198422
vt 0.754179 0.000000
vt 0.807003 0.000000
vt 0.903501 0.396844
vt 0.936062 0.396844
vt 0.898677 0.798948
vt 0.402323 0.602456
vt 0.434884 0.602456
vt 0.818117 0.396844
vt 0.850678 0.396844
vt 0.349499 0.602456
vt 0.855502 0.597896
vt 0.850678 0.798948
vn 0.000000 0.000000 -1.000000
vn 0.000000 1.000000 0.000000
vn 0.000000 0.866300 0.499500
vn -0.525700 0.850700 0.000000
vn -0.284600 0.921100 0.265500
vn 0.470200 0.882600 0.000000
vn 0.248000 0.930900 -0.268400
vn 0.248000 0.930900 0.268400
vn -0.284600 0.921100 -0.265500
vn 0.000000 0.866300 -0.499500
vn -0.068100 0.997700 0.000000
vn -0.068600 0.997600 -0.000500
vn -0.068600 0.997600 0.000300
vn 0.001100 1.000000 -0.001100
vn 0.000800 1.000000 0.000400
vn 1.000000 0.000000 0.000000
vn -1.000000 0.000000 0.000000
vn 0.000000 0.000000 1.000000
vn 0.125600 0.992100 0.000000
vn 0.000000 0.992100 -0.125600
vn 0.000000 0.992100 0.125600
vn -0.125600 0.992100 0.000000
vn -0.062800 -0.373000 -0.925700
vn 0.000000 1.000000 0.000600
vn -0.058500 -0.347200 0.936000
vn -0.219100 -0.975700 -0.000000
s off
f 21/1/1 22/2/1 23/3/1 24/4/1
f 38/5/1 39/6/1 40/7/1 41/8/1
f 82/9/1 21/1/1 24/4/1 83/10/1
f 22/2/1 89/11/1 87/12/1 23/3/1
f 89/11/1 38/5/1 41/8/1 87/12/1
f 90/13/1 82/9/1 83/10/1 88/14/1
f 56/15/1 27/16/1 91/17/1 92/18/1
f 92/18/1 91/17/1 93/19/1 94/20/1
f 94/20/1 93/19/1 22/2/1 21/1/1
f 2/21/1 81/22/1 95/23/1 96/24/1
f 96/24/1 95/23/1 97/25/1 98/26/1
f 98/26/1 97/25/1 39/6/1 38/5/1
f 44/27/1 56/15/1 92/18/1 99/28/1
f 99/28/1 92/18/1 94/20/1 100/29/1
f 100/29/1 94/20/1 21/1/1 82/9/1
f 27/16/1 3/30/1 101/31/1 91/17/1
f 91/17/1 101/31/1 102/32/1 93/19/1
f 93/19/1 102/32/1 89/11/1 22/2/1
f 3/30/1 2/21/1 96/24/1 101/31/1
f 101/31/1 96/24/1 98/26/1 102/32/1
f 102/32/1 98/26/1 38/5/1 89/11/1
f 45/33/1 44/27/1 99/28/1 103/34/1
f 103/34/1 99/28/1 100/29/1 104/35/1
f 104/35/1 100/29/1 82/9/1 90/13/1
f 1/36/2 2/37/2 3/38/2 4/39/2
f 5/40/2 6/41/2 7/42/2 8/43/2
f 1/36/2 4/39/2 6/41/2 5/40/2
f 9/44/2 8/43/2 7/42/2 10/45/2
f 11/46/2 12/47/2 13/48/2 14/49/2
f 9/44/2 10/45/2 12/47/2 11/46/2
f 15/50/2 14/49/2 13/48/2 16/51/2
f 17/52/3 18/53/3 19/54/3 20/55/3
f 19/54/2 25/56/2 26/57/2 20/55/2
f 3/38/2 27/58/2 28/59/2 4/39/2
f 12/47/4 29/60/4 30/61/4 13/48/4
f 6/41/2 4/39/2 28/59/2 25/56/2
f 7/42/2 6/41/2 25/56/2 19/54/2
f 12/47/4 10/45/4 18/53/4 29/60/4
f 7/42/5 19/54/5 18/53/5 10/45/5
f 25/56/2 28/59/2 31/62/2 26/57/2
f 32/63/6 33/64/6 34/65/6 35/66/6
f 32/63/6 35/66/6 36/67/6 37/68/6
f 37/68/7 36/67/7 42/69/7 43/70/7
f 44/71/2 45/72/2 46/73/2 47/74/2
f 48/75/2 47/74/2 46/73/2 49/76/2
f 50/77/8 51/78/8 34/65/8 33/64/8
f 50/77/2 48/75/2 49/76/2 51/78/2
f 13/48/9 30/61/9 52/79/9 16/51/9
f 29/60/2 18/53/2 17/52/2 53/80/2
f 54/81/10 52/79/10 30/61/10 55/82/10
f 55/82/2 30/61/2 29/60/2 53/80/2
f 31/62/2 28/59/2 27/58/2 56/83/2
f 57/84/2 58/85/2 59/86/2 60/87/2
f 61/88/2 62/89/2 63/90/2 64/91/2
f 62/89/2 57/84/2 60/87/2 63/90/2
f 65/92/11 66/93/11 67/94/11 68/95/11
f 69/96/12 70/97/12 71/98/12 72/99/12
f 72/99/13 71/98/13 68/95/13 67/94/13
f 73/100/2 74/101/2 75/102/2 76/103/2
f 76/103/2 75/102/2 58/85/2 57/84/2
f 77/104/14 78/105/14 79/106/14 80/107/14
f 80/107/2 79/106/2 62/89/2 61/88/2
f 78/105/15 73/100/15 76/103/15 79/106/15
f 79/106/2 76/103/2 57/84/2 62/89/2
f 2/37/2 1/36/2 70/97/2 81/108/2
f 71/98/2 5/40/2 8/43/2 68/95/2
f 70/97/2 1/36/2 5/40/2 71/98/2
f 65/92/2 68/95/2 8/43/2 9/44/2
f 84/109/2 11/46/2 14/49/2 85/110/2
f 65/92/2 9/44/2 11/46/2 84/109/2
f 86/111/2 85/110/2 14/49/2 15/50/2
f 53/80/2 17/52/2 33/64/2 32/63/2
f 53/80/2 32/63/2 37/68/2 55/82/2
f 55/82/10 37/68/10 43/70/10 54/81/10
f 56/83/2 44/71/2 47/74/2 31/62/2
f 26/57/2 31/62/2 47/74/2 48/75/2
f 20/55/3 50/77/3 33/64/3 17/52/3
f 20/55/2 26/57/2 48/75/2 50/77/2
f 105/112/16 106/113/16 69/114/16 72/115/16
f 107/116/16 108/117/16 64/118/16 63/119/16
f 109/120/17 110/121/17 111/122/17 112/123/17
f 113/124/1 114/125/1 66/126/1 115/127/1
f 116/128/18 117/129/18 118/130/18 119/131/18
f 120/132/19 121/133/19 122/122/19 123/134/19
f 124/135/20 125/136/20 126/137/20 127/138/20
f 128/139/21 129/140/21 130/141/21 131/142/21
f 132/143/22 133/144/22 134/145/22 135/146/22
f 136/147/1 137/148/1 77/149/1 80/150/1
f 138/151/18 139/152/18 59/153/18 58/154/18
f 140/155/17 141/156/17 74/157/17 73/158/17
f 114/159/16 142/160/16 67/161/16 66/162/16
f 143/163/16 144/164/16 145/165/16 146/166/16
f 139/167/16 147/168/16 60/169/16 59/170/16
f 147/168/16 107/116/16 63/119/16 60/169/16
f 117/171/17 148/172/17 149/173/17 118/141/17
f 148/172/17 109/120/17 112/123/17 149/173/17
f 125/136/19 150/174/19 151/175/19 126/137/19
f 150/174/19 120/132/19 123/134/19 151/175/19
f 129/140/22 152/176/22 153/177/22 130/141/22
f 152/176/22 132/143/22 135/146/22 153/177/22
f 137/178/17 154/179/17 78/180/17 77/181/17
f 105/182/23 154/183/23 155/184/23 156/185/23
f 157/186/16 158/187/16 159/188/16 156/189/16
f 160/190/17 161/191/17 162/192/17 163/193/17
f 164/194/1 165/195/1 166/196/1 167/197/1
f 168/198/18 169/199/18 170/200/18 171/201/18
f 165/202/16 172/203/16 173/204/16 166/205/16
f 172/203/16 157/186/16 156/189/16 173/204/16
f 169/206/17 174/207/17 175/208/17 170/209/17
f 174/207/17 160/190/17 163/193/17 175/208/17
f 176/210/1 177/211/1 178/212/1 179/213/1
f 180/214/18 181/215/18 182/216/18 183/217/18
f 184/218/17 185/219/17 186/220/17 187/221/17
f 181/222/16 188/223/16 189/224/16 182/225/16
f 188/223/16 143/163/16 146/166/16 189/224/16
f 177/226/17 190/227/17 155/228/17 178/229/17
f 190/227/17 184/218/17 187/221/17 155/228/17
f 78/105/24 72/99/24 67/94/24 73/100/24
f 142/230/25 173/231/25 187/184/25 140/183/25
f 156/232/26 155/233/26 187/234/26 173/235/26
f 110/236/1 191/237/1 192/238/1 111/239/1
f 191/237/1 113/124/1 115/127/1 192/238/1
f 106/240/18 193/241/18 194/242/18 69/243/18
f 193/241/18 116/128/18 119/131/18 194/242/18
f 133/144/20 195/244/20 196/245/20 134/145/20
f 195/244/20 124/135/20 127/138/20 196/245/20
f 121/133/21 197/246/21 198/123/21 122/122/21
f 197/246/21 128/139/21 131/142/21 198/123/21
f 108/247/1 199/248/1 61/249/1 64/250/1
f 199/248/1 136/147/1 80/150/1 61/249/1
f 141/251/18 200/252/18 75/253/18 74/254/18
f 200/252/18 138/151/18 58/154/18 75/253/18
f 161/255/1 201/256/1 202/257/1 162/258/1
f 201/256/1 164/194/1 167/197/1 202/257/1
f 158/259/18 203/260/18 204/261/18 159/262/18
f 203/260/18 168/198/18 171/201/18 204/261/18
f 144/263/1 205/264/1 206/265/1 145/266/1
f 205/264/1 176/210/1 179/213/1 206/265/1
f 185/267/18 207/268/18 208/269/18 186/270/18
f 207/268/18 180/214/18 183/217/18 208/269/18
f 156/189/16 159/188/16 106/113/16 105/112/16
f 146/166/16 145/165/16 108/117/16 107/116/16
f 163/193/17 162/192/17 110/121/17 109/120/17
f 167/197/1 166/196/1 114/125/1 113/124/1
f 171/201/18 170/200/18 117/129/18 116/128/18
f 179/213/1 178/212/1 137/148/1 136/147/1
f 183/217/18 182/216/18 139/152/18 138/151/18
f 187/221/17 186/220/17 141/156/17 140/155/17
f 166/205/16 173/204/16 142/160/16 114/159/16
f 182/225/16 189/224/16 147/168/16 139/167/16
f 189/224/16 146/166/16 107/116/16 147/168/16
f 170/209/17 175/208/17 148/172/17 117/171/17
f 175/208/17 163/193/17 109/120/17 148/172/17
f 178/229/17 155/228/17 154/179/17 137/178/17
f 72/271/1 78/272/1 154/183/1 105/182/1
f 67/273/18 142/230/18 140/183/18 73/272/18
f 162/258/1 202/257/1 191/237/1 110/236/1
f 202/257/1 167/197/1 113/124/1 191/237/1
f 159/262/18 204/261/18 193/241/18 106/240/18
f 204/261/18 171/201/18 116/128/18 193/241/18
f 145/266/1 206/265/1 199/248/1 108/247/1
f 206/265/1 179/213/1 136/147/1 199/248/1
f 186/270/18 208/269/18 200/252/18 141/251/18
f 208/269/18 183/217/18 138/151/18 200/252/18
f 123/274/16 122/122/16 158/187/16 157/186/16
f 135/275/17 134/114/17 161/191/17 160/190/17
f 127/276/1 126/130/1 165/195/1 164/194/1
f 131/277/18 130/278/18 169/199/18 168/198/18
f 126/279/16 151/280/16 172/203/16 165/202/16
f 151/280/16 123/274/16 157/186/16 172/203/16
f 130/281/17 153/282/17 174/207/17 169/206/17
f 153/282/17 135/275/17 160/190/17 174/207/17
f 134/243/1 196/283/1 201/256/1 161/255/1
f 196/283/1 127/276/1 164/194/1 201/256/1
f 122/284/18 198/285/18 203/260/18 158/259/18
f 198/285/18 131/277/18 168/198/18 203/260/18
f 152/286/16 129/287/16 144/164/16 143/163/16
f 197/119/1 121/118/1 177/211/1 176/210/1
f 195/288/18 133/149/18 181/215/18 180/214/18
f 150/289/17 125/290/17 185/219/17 184/218/17
f 133/291/16 132/292/16 188/223/16 181/222/16
f 132/292/16 152/286/16 143/163/16 188/223/16
f 121/162/17 120/293/17 190/227/17 177/226/17
f 120/293/17 150/289/17 184/218/17 190/227/17
f 129/170/1 128/294/1 205/264/1 144/263/1
f 128/294/1 197/119/1 176/210/1 205/264/1
f 125/250/18 124/295/18 207/268/18 185/267/18
f 124/295/18 195/288/18 180/214/18 207/268/18
