# Blender v2.72 (sub 0) OBJ File: 'test_level.blend'
# www.blender.org
o Cube_Cube.001
v -1.402654 -1.872741 10.713952
v -1.402654 -1.872748 14.999534
v 3.235407 -1.872748 14.999534
v 3.235407 -1.872741 10.713952
v -1.402654 -1.872742 6.428371
v 3.235407 -1.872742 6.428371
v 3.235407 -1.872742 2.142790
v -1.402654 -1.872742 2.142790
v -1.402654 -1.872742 -2.142791
v 3.235407 -1.872742 -2.142791
v -1.402654 -1.872742 -6.428372
v 3.235407 -1.872742 -6.428372
v 3.235407 -1.872742 -10.713952
v -1.402654 -1.872742 -10.713952
v -1.402654 -1.872742 -14.999534
v 3.235407 -1.872742 -14.999534
v 11.091901 0.598228 -2.142791
v 7.233686 0.598228 -2.142791
v 7.233686 -1.872742 2.142790
v 11.091901 -1.872742 2.142790
v 11.091901 13.389005 14.999535
v 7.233686 13.389005 14.999535
v 7.233686 17.803696 14.999535
v 11.091901 17.803696 14.999535
v 7.233686 -1.872742 6.428371
v 11.091901 -1.872742 6.428371
v 7.233686 -1.872748 14.999534
v 7.233686 -1.872741 10.713952
v 7.233686 0.598228 -6.428372
v 7.233686 0.598228 -10.713952
v 11.091901 -1.872741 10.713952
v 15.729963 0.598228 -6.428372
v 15.729963 0.598228 -2.142791
v 20.368025 -1.872742 -2.142791
v 20.368025 -1.872742 -6.428372
v 20.368025 -1.872742 -10.713952
v 15.729963 0.598228 -10.713952
v -1.402654 13.389005 14.999535
v -6.040713 13.389005 14.999535
v -6.040713 17.803696 14.999535
v -1.402654 17.803696 14.999535
v 15.729963 -1.872742 -14.999534
v 15.729963 -1.872748 14.999534
v 20.368025 -1.872748 14.999534
v 20.368025 -1.872741 10.713952
v 15.729963 -1.872741 10.713952
v 15.729963 -1.872742 6.428371
v 20.368025 -1.872742 6.428371
v 15.729963 -1.872742 2.142790
v 20.368025 -1.872742 2.142790
v 7.233686 -1.872742 -14.999534
v 11.091901 0.598228 -6.428372
v 11.091901 -1.872742 -14.999534
v 11.091901 0.598228 -10.713952
v 11.091901 -1.872748 14.999534
v -16.504074 -2.125863 2.530503
v -16.504074 -2.125863 0.348044
v -19.009897 -2.125863 0.348044
v -19.009897 -2.125863 2.530503
v -16.504074 -2.125863 8.253559
v -16.504074 -2.125863 6.071101
v -19.009897 -2.125863 6.071101
v -19.009897 -2.125863 8.253559
v -6.040713 -1.872742 -2.142791
v -9.746256 -2.125863 -1.010082
v -9.746256 -2.125863 1.282763
v -6.040713 -1.872742 2.142790
v -9.746256 -2.125863 9.611688
v -6.040713 -1.872741 10.713952
v -6.040713 -1.872742 6.428371
v -9.746256 -2.129320 7.427763
v -11.104385 -2.125863 1.282759
v -11.104385 -2.125863 0.348044
v -13.286842 -2.125863 0.348044
v -13.286842 -2.125863 2.530503
v -11.104385 -2.125863 8.253559
v -11.104385 -2.129320 7.427767
v -13.286842 -2.125863 6.071101
v -13.286842 -2.125863 8.253559
v -6.040713 -1.872748 14.999534
v 15.729963 13.389005 14.999535
v 15.729963 17.803696 14.999535
v -6.040713 -1.872742 -6.428372
v -6.040713 -1.872742 -10.713952
v -6.040713 -1.872742 -14.999534
v 3.235407 17.803696 14.999535
v 20.368025 17.803696 14.999535
v 3.235407 13.389005 14.999535
v 20.368025 13.389005 14.999535
v 7.233686 3.214502 14.999534
v 11.091901 3.214502 14.999534
v 7.233686 8.301753 14.999534
v 11.091901 8.301753 14.999534
v -6.040713 3.214502 14.999534
v -1.402654 3.214502 14.999534
v -6.040713 8.301753 14.999534
v -1.402654 8.301753 14.999534
v 15.729963 3.214502 14.999534
v 15.729963 8.301753 14.999534
v 3.235407 3.214502 14.999534
v 3.235407 8.301753 14.999534
v 20.368025 3.214502 14.999534
v 20.368025 8.301753 14.999534
v -9.746256 1.157921 7.427763
v -9.746256 1.161377 9.611688
v -19.009897 1.313897 6.071101
v -19.009897 1.313897 8.253561
v -20.368025 1.161378 2.530507
v -20.368025 1.161378 -1.010082
v -20.368025 -2.125863 -1.010082
v -20.368025 -2.125863 2.530507
v -13.286842 1.161378 -1.010082
v -9.746256 1.161378 -1.010082
v -13.286842 -2.125863 -1.010082
v -16.504074 1.161377 9.611688
v -20.368025 1.161376 9.611688
v -20.368025 -2.125863 9.611688
v -16.504074 -2.125863 9.611688
v -11.104385 10.929400 6.071102
v -11.104385 10.929400 8.253562
v -9.746256 10.929400 9.611689
v -9.746256 10.929400 6.071098
v -13.286842 10.929400 0.348045
v -11.104385 10.929400 0.348045
v -9.746256 10.929400 -1.010081
v -13.286842 10.929400 -1.010081
v -16.504074 10.929400 8.253562
v -19.009897 10.929400 8.253562
v -20.368025 10.929400 9.611689
v -16.504074 10.929400 9.611688
v -19.009897 10.929400 2.530504
v -19.009897 10.929400 0.348045
v -20.368025 10.929400 -1.010081
v -20.368025 10.929400 2.530508
v -13.286842 1.313897 8.253561
v -11.104385 1.313897 8.253561
v -16.504074 1.313898 0.348044
v -19.009897 1.313898 0.348044
v -11.104385 1.313898 1.282760
v -11.104385 1.313898 0.348044
v -9.746256 1.161378 1.282763
v -19.009897 7.884499 6.071102
v -19.009897 7.884499 8.253561
v -19.009897 4.753657 8.253561
v -19.009897 4.753657 6.071102
v -19.009897 1.313897 2.530503
v -20.368025 1.161378 6.071099
v -20.368025 -2.125863 6.071097
v -11.104385 10.929400 2.530504
v -9.746256 10.929400 2.530508
v -19.009897 10.929400 6.071102
v -20.368025 10.929400 6.071102
v -11.104385 1.310440 7.427767
v -11.104385 4.753657 6.071102
v -9.746256 4.448615 6.071097
v -9.746256 7.646038 6.071098
v -9.746256 7.646038 9.611688
v -9.746256 4.448615 9.611688
v -20.368025 7.646039 2.530507
v -20.368025 7.646039 -1.010081
v -20.368025 4.448616 -1.010081
v -20.368025 4.448616 2.530507
v -13.286842 7.646039 -1.010081
v -9.746256 7.646039 -1.010081
v -9.746256 4.448616 -1.010081
v -13.286842 4.448616 -1.010081
v -16.504074 7.646038 9.611687
v -20.368025 7.646038 9.611688
v -20.368025 4.448615 9.611688
v -16.504074 4.448615 9.611688
v -9.746256 7.646039 2.530507
v -9.746256 4.448616 2.530507
v -20.368025 7.646038 6.071101
v -20.368025 4.448615 6.071100
v -13.286842 7.884499 8.253561
v -11.104385 7.884499 8.253561
v -11.104385 4.753657 8.253561
v -13.286842 4.753657 8.253561
v -16.504074 7.884500 0.348047
v -19.009897 7.884501 0.348045
v -19.009897 4.753659 0.348045
v -16.504074 4.753659 0.348045
v -11.104385 7.884500 2.530504
v -11.104385 7.884501 0.348045
v -11.104385 4.753659 0.348045
v -11.104385 4.753658 2.530504
v -19.009897 7.884500 2.530504
v -19.009897 4.753658 2.530504
v -11.104385 7.884499 6.071102
v -16.504074 1.161378 -1.010082
v -16.504074 -2.125863 -1.010082
v -13.286842 1.161377 9.611688
v -13.286842 -2.125863 9.611688
v -16.504074 10.929400 0.348049
v -16.504074 10.929400 -1.010081
v -13.286842 10.929400 8.253562
v -13.286842 10.929400 9.611689
v -16.504074 1.313897 8.253561
v -13.286842 1.313898 0.348044
v -16.504074 7.646039 -1.010081
v -16.504074 4.448616 -1.010081
v -13.286842 7.646038 9.611688
v -13.286842 4.448615 9.611688
v -16.504074 7.884499 8.253561
v -16.504074 4.753657 8.253561
v -13.286842 7.884500 0.348045
v -13.286842 4.753659 0.348045
v 15.729963 0.598228 -2.142791
v 20.368025 -1.872742 -2.142791
v 15.729963 -1.872742 2.142790
vt 0.598417 0.304823
vt 0.501623 0.304823
vt 0.501623 0.198868
vt 0.598417 0.198868
vt 0.301482 0.304823
vt 0.193998 0.304823
vt 0.193998 0.198868
vt 0.301482 0.198868
vt 0.705900 0.304823
vt 0.705900 0.198868
vt 0.399122 0.304823
vt 0.399122 0.198868
vt 0.803541 0.304823
vt 0.803541 0.198868
vt 0.598417 0.605308
vt 0.501623 0.605308
vt 0.501623 0.500225
vt 0.598417 0.500225
vt 0.501623 0.395142
vt 0.598417 0.395142
vt 0.301482 0.605308
vt 0.193998 0.605308
vt 0.193998 0.500225
vt 0.301482 0.500225
vt 0.193998 0.395142
vt 0.301482 0.395142
vt 0.705900 0.605308
vt 0.705900 0.500225
vt 0.705900 0.395142
vt 0.399123 0.605308
vt 0.399122 0.500225
vt 0.399122 0.395142
vt 0.803541 0.605308
vt 0.803541 0.500225
vt 0.803541 0.395142
vt 0.464679 0.730558
vt 0.401461 0.809051
vt 0.316460 0.740820
vt 0.379595 0.661990
vt 0.528161 0.652064
vt 0.443068 0.583046
vt 0.507112 0.503997
vt 0.592060 0.573756
vt 0.656487 0.495968
vt 0.572145 0.425267
vt 0.721228 0.418937
vt 0.638153 0.349059
vt 0.701988 0.271769
vt 0.785922 0.341741
vt 0.850936 0.264421
vt 0.767264 0.193868
vt 0.429926 0.297680
vt 0.495811 0.350589
vt 0.432822 0.443318
vt 0.359895 0.387699
vt 0.369281 0.523842
vt 0.297441 0.467058
vt 0.242920 0.682126
vt 0.305946 0.603094
vt 0.557869 0.281131
vt 0.616070 0.209943
vt 0.234553 0.546372
vt 0.414987 0.155783
vt 0.348432 0.228818
vt 0.258690 0.144126
vt 0.327756 0.070943
vt 0.400803 0.000103
vt 0.479764 0.086765
vt 0.547293 0.000102
vt 0.085921 0.557588
vt 0.000102 0.489634
vt 0.062882 0.410342
vt 0.148726 0.478321
vt 0.211559 0.398989
vt 0.125679 0.330995
vt 0.188498 0.251611
vt 0.251308 0.172234
vt 0.274404 0.319587
vt 0.492534 0.224690
vt 0.630514 0.070515
vt 0.695586 0.132668
vt 0.555113 0.153604
vt 0.171692 0.625552
vt 0.186029 0.564119
vt 0.218590 0.564119
vt 0.218590 0.602456
vt 0.186029 0.602456
vt 0.100645 0.564119
vt 0.133206 0.564119
vt 0.133206 0.602456
vt 0.100645 0.602456
vt 0.103404 0.480236
vt 0.000100 0.447126
vt 0.000965 0.383036
vt 0.105249 0.360319
vt 0.003507 0.150005
vt 0.107721 0.120128
vt 0.106652 0.240204
vt 0.002897 0.211143
vt 0.186029 0.481507
vt 0.218590 0.481507
vt 0.218590 0.514897
vt 0.186029 0.514897
vt 0.100645 0.481507
vt 0.133206 0.481507
vt 0.133206 0.514897
vt 0.100645 0.514897
vt 0.549479 0.799098
vt 0.486259 0.877436
vt 0.612772 0.720866
vt 0.676243 0.643009
vt 0.740259 0.565746
vt 0.804646 0.488828
vt 0.869398 0.411839
vt 0.934375 0.334742
vt 0.211292 0.652749
vt 0.158469 0.652749
vt 0.158469 0.602456
vt 0.211292 0.602456
vt 0.903501 0.545270
vt 0.936062 0.545270
vt 0.936062 0.597896
vt 0.903501 0.597896
vt 0.105646 0.750585
vt 0.158469 0.750585
vt 0.158469 0.800878
vt 0.105646 0.800878
vt 0.859826 0.346552
vt 0.912649 0.346552
vt 0.912649 0.396844
vt 0.859826 0.396844
vt 0.855001 0.148130
vt 0.912649 0.148130
vt 0.912649 0.198422
vt 0.855001 0.198422
vt 0.138203 0.855047
vt 0.138203 0.821657
vt 0.158469 0.855047
vt 0.105643 0.942606
vt 0.138203 0.942606
vt 0.158469 0.963384
vt 0.105646 0.963384
vt 0.057644 0.821657
vt 0.020259 0.821657
vt 0.000000 0.800878
vt 0.057647 0.800878
vt 0.020259 0.909216
vt 0.020259 0.942606
vt 0.000000 0.963384
vt 0.000000 0.909216
vt 0.903501 0.746322
vt 0.936062 0.746322
vt 0.936062 0.798948
vt 0.903501 0.798948
vt 0.898677 0.947374
vt 0.936062 0.947374
vt 0.936062 1.000000
vt 0.898677 1.000000
vt 0.402323 0.750882
vt 0.434884 0.750882
vt 0.434884 0.803508
vt 0.402323 0.803508
vt 0.316939 0.652749
vt 0.264116 0.652749
vt 0.264116 0.602456
vt 0.316939 0.602456
vt 0.903501 0.444744
vt 0.936062 0.444744
vt 0.936062 0.492644
vt 0.903501 0.492644
vt 0.818117 0.545270
vt 0.850678 0.545270
vt 0.850678 0.597896
vt 0.818117 0.597896
vt 0.000000 0.750586
vt 0.052823 0.750585
vt 0.052823 0.800878
vt 0.138203 0.909216
vt 0.158469 0.909216
vt 0.020259 0.855047
vt 0.000000 0.855047
vt 0.316939 0.750882
vt 0.349500 0.750882
vt 0.349500 0.803508
vt 0.316939 0.803508
vt 0.198994 0.855838
vt 0.178732 0.853504
vt 0.178732 0.800878
vt 0.198994 0.805545
vt 0.211292 0.751960
vt 0.158469 0.751960
vt 0.158469 0.703041
vt 0.211292 0.703041
vt 0.105646 0.651374
vt 0.158469 0.651374
vt 0.158469 0.700293
vt 0.105646 0.700293
vt 0.859826 0.247341
vt 0.912649 0.247341
vt 0.912649 0.296259
vt 0.859826 0.296259
vt 0.855001 0.048918
vt 0.912649 0.048918
vt 0.912649 0.097837
vt 0.855001 0.097837
vt 0.316939 0.751960
vt 0.264116 0.751960
vt 0.264116 0.703041
vt 0.316939 0.703041
vt 0.000000 0.651374
vt 0.052823 0.651374
vt 0.052823 0.700293
vt 0.000000 0.700293
vt 0.903501 0.645796
vt 0.936062 0.645796
vt 0.936062 0.693696
vt 0.903501 0.693696
vt 0.898677 0.846848
vt 0.936062 0.846848
vt 0.936062 0.894748
vt 0.898677 0.894748
vt 0.402323 0.650356
vt 0.434884 0.650356
vt 0.434884 0.698256
vt 0.402323 0.698256
vt 0.818117 0.444744
vt 0.850678 0.444744
vt 0.850678 0.492644
vt 0.818117 0.492644
vt 0.316939 0.650356
vt 0.349499 0.650356
vt 0.349499 0.698256
vt 0.316939 0.698256
vt 0.133206 0.460728
vt 0.186029 0.460728
vt 0.158469 0.855838
vt 0.158469 0.805545
vt 0.198994 0.800878
vt 0.219761 0.800878
vt 0.219761 0.855047
vt 0.198994 0.855047
vt 0.754179 0.346552
vt 0.811827 0.346552
vt 0.811827 0.396844
vt 0.754179 0.396844
vt 0.754179 0.148130
vt 0.807003 0.148130
vt 0.807003 0.198422
vt 0.754179 0.198422
vt 0.057644 0.942606
vt 0.057647 0.963384
vt 0.105643 0.821657
vt 0.818117 0.746322
vt 0.855503 0.746322
vt 0.855503 0.798948
vt 0.818117 0.798948
vt 0.818117 0.947374
vt 0.850678 0.947374
vt 0.850678 1.000000
vt 0.818117 1.000000
vt 0.754179 0.247341
vt 0.811827 0.247341
vt 0.811827 0.296259
vt 0.754179 0.296259
vt 0.754179 0.048919
vt 0.807003 0.048919
vt 0.807003 0.097837
vt 0.754179 0.097837
vt 0.818117 0.645796
vt 0.855502 0.645796
vt 0.855503 0.693696
vt 0.818117 0.693696
vt 0.818117 0.846848
vt 0.850678 0.846848
vt 0.850678 0.894748
vt 0.818117 0.894748
vt 0.198994 0.906130
vt 0.178732 0.906130
vt 0.158469 0.906130
vt 0.211292 0.800878
vt 0.105646 0.602456
vt 0.859826 0.198422
vt 0.855001 0.000000
vt 0.912649 0.000000
vt 0.316939 0.800878
vt 0.264116 0.800878
vt 0.000000 0.602456
vt 0.052823 0.602456
vt 0.811827 0.198422
vt 0.754179 0.000000
vt 0.807003 0.000000
vt 0.903501 0.396844
vt 0.936062 0.396844
vt 0.898677 0.798948
vt 0.402323 0.602456
vt 0.434884 0.602456
vt 0.818117 0.396844
vt 0.850678 0.396844
vt 0.349499 0.602456
vt 0.855502 0.597896
vt 0.850678 0.798948
vt 0.255751 0.070959
vt 0.191814 0.070959
vt 0.111968 0.877641
vt 0.111968 0.999898
vt 0.000102 0.972869
vt 0.191814 0.000000
vt 0.000000 0.000000
vt 0.255751 0.000000
vn 0.000000 0.000000 -1.000000
vn 0.000000 1.000000 0.000000
vn 0.000000 0.866300 0.499500
vn -0.525700 0.850700 0.000000
vn -0.472000 0.763700 0.440400
vn 0.470200 0.882600 0.000000
vn 0.419100 0.786600 -0.453500
vn 0.000000 0.866300 -0.499500
vn -0.068100 0.997700 0.000000
vn -0.068600 0.997600 -0.000500
vn -0.068600 0.997600 0.000300
vn 0.001100 1.000000 -0.001100
vn 0.000800 1.000000 0.000400
vn 1.000000 0.000000 0.000000
vn -1.000000 0.000000 0.000000
vn 0.000000 0.000000 1.000000
vn -0.062800 -0.373000 -0.925700
vn 0.000000 1.000000 0.000600
vn -0.058500 -0.347200 0.936000
vn -0.219100 -0.975700 -0.000000
vn 0.419100 0.786600 0.453500
vn -0.472000 0.763700 -0.440400
s off
f 21/1/1 22/2/1 23/3/1 24/4/1
f 38/5/1 39/6/1 40/7/1 41/8/1
f 81/9/1 21/1/1 24/4/1 82/10/1
f 22/2/1 88/11/1 86/12/1 23/3/1
f 88/11/1 38/5/1 41/8/1 86/12/1
f 89/13/1 81/9/1 82/10/1 87/14/1
f 55/15/1 27/16/1 90/17/1 91/18/1
f 91/18/1 90/17/1 92/19/1 93/20/1
f 93/20/1 92/19/1 22/2/1 21/1/1
f 2/21/1 80/22/1 94/23/1 95/24/1
f 95/24/1 94/23/1 96/25/1 97/26/1
f 97/26/1 96/25/1 39/6/1 38/5/1
f 43/27/1 55/15/1 91/18/1 98/28/1
f 98/28/1 91/18/1 93/20/1 99/29/1
f 99/29/1 93/20/1 21/1/1 81/9/1
f 27/16/1 3/30/1 100/31/1 90/17/1
f 90/17/1 100/31/1 101/32/1 92/19/1
f 92/19/1 101/32/1 88/11/1 22/2/1
f 3/30/1 2/21/1 95/24/1 100/31/1
f 100/31/1 95/24/1 97/26/1 101/32/1
f 101/32/1 97/26/1 38/5/1 88/11/1
f 44/33/1 43/27/1 98/28/1 102/34/1
f 102/34/1 98/28/1 99/29/1 103/35/1
f 103/35/1 99/29/1 81/9/1 89/13/1
f 1/36/2 2/37/2 3/38/2 4/39/2
f 5/40/2 6/41/2 7/42/2 8/43/2
f 1/36/2 4/39/2 6/41/2 5/40/2
f 9/44/2 8/43/2 7/42/2 10/45/2
f 11/46/2 12/47/2 13/48/2 14/49/2
f 9/44/2 10/45/2 12/47/2 11/46/2
f 15/50/2 14/49/2 13/48/2 16/51/2
f 17/52/3 18/53/3 19/54/3 20/55/3
f 19/54/2 25/56/2 26/57/2 20/55/2
f 3/38/2 27/58/2 28/59/2 4/39/2
f 12/47/4 29/60/4 30/61/4 13/48/4
f 6/41/2 4/39/2 28/59/2 25/56/2
f 7/42/2 6/41/2 25/56/2 19/54/2
f 12/47/4 10/45/4 18/53/4 29/60/4
f 10/45/5 19/54/5 18/53/5
f 25/56/2 28/59/2 31/62/2 26/57/2
f 32/63/6 33/64/6 34/65/6 35/66/6
f 32/63/6 35/66/6 36/67/6 37/68/6
f 37/68/7 36/67/7 42/69/7
f 43/70/2 44/71/2 45/72/2 46/73/2
f 47/74/2 46/73/2 45/72/2 48/75/2
f 50/76/2 34/77/2 49/78/2
f 49/78/2 47/74/2 48/75/2 50/76/2
f 29/60/2 18/53/2 17/52/2 52/79/2
f 53/80/8 51/81/8 30/61/8 54/82/8
f 54/82/2 30/61/2 29/60/2 52/79/2
f 31/62/2 28/59/2 27/58/2 55/83/2
f 56/84/2 57/85/2 58/86/2 59/87/2
f 60/88/2 61/89/2 62/90/2 63/91/2
f 61/89/2 56/84/2 59/87/2 62/90/2
f 64/92/9 65/93/9 66/94/9 67/95/9
f 68/96/10 69/97/10 70/98/10 71/99/10
f 71/99/11 70/98/11 67/95/11 66/94/11
f 72/100/2 73/101/2 74/102/2 75/103/2
f 75/103/2 74/102/2 57/85/2 56/84/2
f 76/104/12 77/105/12 78/106/12 79/107/12
f 79/107/2 78/106/2 61/89/2 60/88/2
f 77/105/13 72/100/13 75/103/13 78/106/13
f 78/106/2 75/103/2 56/84/2 61/89/2
f 2/37/2 1/36/2 69/108/2 80/109/2
f 70/110/2 5/40/2 8/43/2 67/111/2
f 69/108/2 1/36/2 5/40/2 70/110/2
f 64/112/2 67/111/2 8/43/2 9/44/2
f 83/113/2 11/46/2 14/49/2 84/114/2
f 64/112/2 9/44/2 11/46/2 83/113/2
f 85/115/2 84/114/2 14/49/2 15/50/2
f 52/79/2 17/52/2 33/64/2 32/63/2
f 52/79/2 32/63/2 37/68/2 54/82/2
f 54/82/8 37/68/8 42/69/8 53/80/8
f 55/83/2 43/70/2 46/73/2 31/62/2
f 26/57/2 31/62/2 46/73/2 47/74/2
f 20/55/3 49/78/3 33/64/3 17/52/3
f 20/55/2 26/57/2 47/74/2 49/78/2
f 104/116/14 105/117/14 68/118/14 71/119/14
f 106/120/14 107/121/14 63/122/14 62/123/14
f 108/124/15 109/125/15 110/126/15 111/127/15
f 112/128/1 113/129/1 65/130/1 114/131/1
f 115/132/16 116/133/16 117/134/16 118/135/16
f 119/136/2 120/137/2 121/126/2 122/138/2
f 123/139/2 124/140/2 125/141/2 126/142/2
f 127/143/2 128/144/2 129/145/2 130/146/2
f 131/147/2 132/148/2 133/149/2 134/150/2
f 135/151/1 136/152/1 76/153/1 79/154/1
f 137/155/16 138/156/16 58/157/16 57/158/16
f 139/159/15 140/160/15 73/161/15 72/162/15
f 113/163/14 141/164/14 66/165/14 65/166/14
f 142/167/14 143/168/14 144/169/14 145/170/14
f 138/171/14 146/172/14 59/173/14 58/174/14
f 146/172/14 106/120/14 62/123/14 59/173/14
f 116/175/15 147/176/15 148/177/15 117/145/15
f 147/176/15 108/124/15 111/127/15 148/177/15
f 124/140/2 149/178/2 150/179/2 125/141/2
f 149/178/2 119/136/2 122/138/2 150/179/2
f 128/144/2 151/180/2 152/181/2 129/145/2
f 151/180/2 131/147/2 134/150/2 152/181/2
f 136/182/15 153/183/15 77/184/15 76/185/15
f 104/186/17 153/187/17 154/188/17 155/189/17
f 156/190/14 157/191/14 158/192/14 155/193/14
f 159/194/15 160/195/15 161/196/15 162/197/15
f 163/198/1 164/199/1 165/200/1 166/201/1
f 167/202/16 168/203/16 169/204/16 170/205/16
f 164/206/14 171/207/14 172/208/14 165/209/14
f 171/207/14 156/190/14 155/193/14 172/208/14
f 168/210/15 173/211/15 174/212/15 169/213/15
f 173/211/15 159/194/15 162/197/15 174/212/15
f 175/214/1 176/215/1 177/216/1 178/217/1
f 179/218/16 180/219/16 181/220/16 182/221/16
f 183/222/15 184/223/15 185/224/15 186/225/15
f 180/226/14 187/227/14 188/228/14 181/229/14
f 187/227/14 142/167/14 145/170/14 188/228/14
f 176/230/15 189/231/15 154/232/15 177/233/15
f 189/231/15 183/222/15 186/225/15 154/232/15
f 77/105/18 71/234/18 66/235/18 72/100/18
f 141/236/19 172/237/19 186/188/19 139/187/19
f 155/238/20 154/239/20 186/240/20 172/241/20
f 109/242/1 190/243/1 191/244/1 110/245/1
f 190/243/1 112/128/1 114/131/1 191/244/1
f 105/246/16 192/247/16 193/248/16 68/249/16
f 192/247/16 115/132/16 118/135/16 193/248/16
f 132/148/2 194/250/2 195/251/2 133/149/2
f 194/250/2 123/139/2 126/142/2 195/251/2
f 120/137/2 196/252/2 197/127/2 121/126/2
f 196/252/2 127/143/2 130/146/2 197/127/2
f 107/253/1 198/254/1 60/255/1 63/256/1
f 198/254/1 135/151/1 79/154/1 60/255/1
f 140/257/16 199/258/16 74/259/16 73/260/16
f 199/258/16 137/155/16 57/158/16 74/259/16
f 160/261/1 200/262/1 201/263/1 161/264/1
f 200/262/1 163/198/1 166/201/1 201/263/1
f 157/265/16 202/266/16 203/267/16 158/268/16
f 202/266/16 167/202/16 170/205/16 203/267/16
f 143/269/1 204/270/1 205/271/1 144/272/1
f 204/270/1 175/214/1 178/217/1 205/271/1
f 184/273/16 206/274/16 207/275/16 185/276/16
f 206/274/16 179/218/16 182/221/16 207/275/16
f 155/193/14 158/192/14 105/117/14 104/116/14
f 145/170/14 144/169/14 107/121/14 106/120/14
f 162/197/15 161/196/15 109/125/15 108/124/15
f 166/201/1 165/200/1 113/129/1 112/128/1
f 170/205/16 169/204/16 116/133/16 115/132/16
f 178/217/1 177/216/1 136/152/1 135/151/1
f 182/221/16 181/220/16 138/156/16 137/155/16
f 186/225/15 185/224/15 140/160/15 139/159/15
f 165/209/14 172/208/14 141/164/14 113/163/14
f 181/229/14 188/228/14 146/172/14 138/171/14
f 188/228/14 145/170/14 106/120/14 146/172/14
f 169/213/15 174/212/15 147/176/15 116/175/15
f 174/212/15 162/197/15 108/124/15 147/176/15
f 177/233/15 154/232/15 153/183/15 136/182/15
f 71/277/1 77/278/1 153/187/1 104/186/1
f 66/279/16 141/236/16 139/187/16 72/278/16
f 161/264/1 201/263/1 190/243/1 109/242/1
f 201/263/1 166/201/1 112/128/1 190/243/1
f 158/268/16 203/267/16 192/247/16 105/246/16
f 203/267/16 170/205/16 115/132/16 192/247/16
f 144/272/1 205/271/1 198/254/1 107/253/1
f 205/271/1 178/217/1 135/151/1 198/254/1
f 185/276/16 207/275/16 199/258/16 140/257/16
f 207/275/16 182/221/16 137/155/16 199/258/16
f 122/280/14 121/126/14 157/191/14 156/190/14
f 134/281/15 133/118/15 160/195/15 159/194/15
f 126/282/1 125/134/1 164/199/1 163/198/1
f 130/283/16 129/284/16 168/203/16 167/202/16
f 125/285/14 150/286/14 171/207/14 164/206/14
f 150/286/14 122/280/14 156/190/14 171/207/14
f 129/287/15 152/288/15 173/211/15 168/210/15
f 152/288/15 134/281/15 159/194/15 173/211/15
f 133/249/1 195/289/1 200/262/1 160/261/1
f 195/289/1 126/282/1 163/198/1 200/262/1
f 121/290/16 197/291/16 202/266/16 157/265/16
f 197/291/16 130/283/16 167/202/16 202/266/16
f 151/292/14 128/293/14 143/168/14 142/167/14
f 196/123/1 120/122/1 176/215/1 175/214/1
f 194/294/16 132/153/16 180/219/16 179/218/16
f 149/295/15 124/296/15 184/223/15 183/222/15
f 132/297/14 131/298/14 187/227/14 180/226/14
f 131/298/14 151/292/14 142/167/14 187/227/14
f 120/166/15 119/299/15 189/231/15 176/230/15
f 119/299/15 149/295/15 183/222/15 189/231/15
f 128/174/1 127/300/1 204/270/1 143/269/1
f 127/300/1 196/123/1 175/214/1 204/270/1
f 124/256/16 123/301/16 206/274/16 184/273/16
f 123/301/16 194/294/16 179/218/16 206/274/16
f 7/42/2 19/54/2 10/45/2
f 51/81/2 16/51/2 13/48/2
f 33/302/16 49/303/16 210/303/16 208/302/16
f 209/304/21 208/305/21 210/306/21
f 49/307/16 34/308/16 209/308/16 210/307/16
f 34/309/16 33/302/16 208/302/16 209/309/16
s 1
f 51/81/22 13/48/22 30/61/22
