# Blender v2.72 (sub 0) OBJ File: 'wedge.blend'
# www.blender.org
o Cube.001
v 0.000001 0.667765 -1.000000
v 0.629536 0.667765 1.000000
v 0.629536 -0.667765 1.000000
v 0.000000 -0.667765 -1.000000
v -0.629536 -0.667765 1.000000
v -0.629536 0.667765 1.000000
vt 0.767727 0.392997
vt 0.767726 0.785901
vt 0.517464 0.785900
vt 0.399311 0.999907
vt 0.281343 0.625131
vt 0.517278 0.625131
vt 0.281343 0.374869
vt 0.517278 0.374869
vt 0.517465 0.392997
vt 0.517466 0.000093
vt 0.399310 0.000093
vt 0.767728 0.000094
vn 0.953900 0.000000 -0.300200
vn 0.000000 -1.000000 -0.000000
vn 0.000000 0.000000 1.000000
vn -0.953900 0.000000 -0.300200
vn 0.000000 1.000000 0.000000
s off
f 1/1/1 2/2/1 3/3/1
f 4/4/2 3/5/2 5/6/2
f 3/5/3 2/7/3 6/8/3
f 1/1/4 4/9/4 5/10/4
f 1/11/5 6/8/5 2/7/5
f 4/9/1 1/1/1 3/3/1
f 5/6/3 3/5/3 6/8/3
f 6/12/4 1/1/4 5/10/4
