# Blender v2.72 (sub 0) OBJ File: ''
# www.blender.org
o Cube
v 0.000000 -0.667765 -1.000000
v 0.629536 -0.667765 1.000000
v -0.629536 -0.667765 1.000000
v 0.000001 0.667765 -1.000000
v 0.629536 0.667765 1.000000
v -0.629536 0.667765 1.000000
vn 0.953900 0.000000 -0.300200
vn 0.000000 -1.000000 0.000000
vn -0.000000 -0.000000 1.000000
vn -0.953900 0.000000 -0.300200
vn 0.000000 1.000000 0.000000
s off
f 4//1 5//1 2//1
f 1//2 2//2 3//2
f 2//3 5//3 6//3
f 4//4 1//4 3//4
f 4//5 6//5 5//5
f 1//1 4//1 2//1
f 3//3 2//3 6//3
f 6//4 4//4 3//4
