# Blender v2.72 (sub 0) OBJ File: ''
# www.blender.org
o Cube
v 1.000000 -0.667765 0.000000
v -1.000000 -0.667765 0.629536
v -1.000000 -0.667765 -0.629536
v 1.000000 0.667765 0.000001
v -1.000000 0.667765 0.629536
v -1.000000 0.667765 -0.629536
vn 0.300200 -0.000000 0.953900
vn 0.000000 -1.000000 0.000000
vn -1.000000 -0.000000 -0.000000
vn 0.300200 0.000000 -0.953900
vn 0.000000 1.000000 0.000000
s off
f 1//1 4//1 5//1
f 1//2 2//2 3//2
f 2//3 5//3 6//3
f 1//4 3//4 6//4
f 4//5 6//5 5//5
f 2//1 1//1 5//1
f 3//3 2//3 6//3
f 4//4 1//4 6//4
